<?xml version="1.0" encoding="utf-8"?>
<!-- Generator: Adobe Illustrator 16.0.0, SVG Export Plug-In . SVG Version: 6.00 Build 0)  -->
<!DOCTYPE svg PUBLIC "-//W3C//DTD SVG 1.1//EN" "http://www.w3.org/Graphics/SVG/1.1/DTD/svg11.dtd">
<svg version="1.1"
	 id="Capa_1" text-rendering="geometricPrecision" image-rendering="optimizeQuality" shape-rendering="geometricPrecision"
	 xmlns="http://www.w3.org/2000/svg" xmlns:xlink="http://www.w3.org/1999/xlink" x="0px" y="0px" width="64px" height="64px"
	 viewBox="0 0 64 64" enable-background="new 0 0 64 64" xml:space="preserve">
<g id="Layer_x0020_1">
	<path fill="#2D4B9B" d="M-0.001,63.622L0,53.398c5.471-2.433,22.213-7.063,23.003-13.758c0.18-1.512-3.386-7.271-4.203-10.033
		c-1.748-2.788-2.375-7.213-0.461-10.159c0.76-1.17,0.436-5.438,0.436-7.049c0-16.026,28.083-16.032,28.083,0
		c0,2.028-0.465,5.752,0.635,7.345c1.844,2.665,0.891,7.389-0.66,9.863c-0.994,2.904-4.781,8.39-4.457,10.033
		c1.202,6.114,16.734,10.223,21.626,12.398L64,63.621L-0.001,63.622L-0.001,63.622z"/>
</g>
</svg>
