<?xml version="1.0" encoding="utf-8"?>
<!-- Generator: Adobe Illustrator 16.0.0, SVG Export Plug-In . SVG Version: 6.00 Build 0)  -->
<!DOCTYPE svg PUBLIC "-//W3C//DTD SVG 1.1//EN" "http://www.w3.org/Graphics/SVG/1.1/DTD/svg11.dtd">
<svg version="1.1"
	 id="Capa_1" text-rendering="geometricPrecision" image-rendering="optimizeQuality" shape-rendering="geometricPrecision"
	 xmlns="http://www.w3.org/2000/svg" xmlns:xlink="http://www.w3.org/1999/xlink" x="0px" y="0px" width="64px" height="64px"
	 viewBox="0 0 64 64" enable-background="new 0 0 64 64" xml:space="preserve">
<g id="Layer_x0020_1">
	<path fill="#2D4B9B" d="M57.146,32v-0.007h0.013c0-6.931-2.823-13.219-7.382-17.775c-4.555-4.555-10.838-7.375-17.761-7.377v0.013
		H32h-0.007V6.841c-6.93,0-13.218,2.823-17.775,7.378c-4.554,4.556-7.376,10.839-7.377,17.766h0.013V32v0.007H6.841
		c0,4.625,1.253,8.968,3.435,12.69c4.367,7.451,12.458,12.459,21.71,12.462v-0.013H32h0.007v0.013c6.931,0,13.22-2.824,17.776-7.382
		c0.75-0.75,1.447-1.539,2.082-2.355C55.174,43.168,57.146,37.814,57.146,32L57.146,32z M35.617,38.469h-8.608v-0.861
		c0-1.457,0.157-2.651,0.491-3.565c0.335-0.922,0.829-1.747,1.483-2.507c0.659-0.757,2.142-2.084,4.435-3.99
		c1.221-1.001,1.835-1.911,1.835-2.734c0-0.841-0.248-1.48-0.737-1.944c-0.49-0.457-1.233-0.691-2.237-0.691
		c-1.077,0-1.958,0.358-2.656,1.063c-0.705,0.708-1.153,1.953-1.347,3.721l-8.796-1.095c0.301-3.23,1.478-5.834,3.52-7.8
		c2.051-1.975,5.19-2.958,9.418-2.958c3.295,0,5.951,0.691,7.979,2.06c2.754,1.862,4.123,4.339,4.123,7.429
		c0,1.29-0.356,2.529-1.063,3.723c-0.707,1.198-2.16,2.651-4.354,4.369c-1.519,1.221-2.485,2.182-2.887,2.918
		C35.816,36.331,35.617,37.291,35.617,38.469z M26.705,40.764h9.229v8.131h-9.229V40.764z M63.986,31.993h0.016V32
		c0,7.393-2.514,14.204-6.729,19.625c-0.826,1.063-1.713,2.068-2.646,3c-5.778,5.781-13.778,9.359-22.622,9.361v0.015H32h-0.014
		v-0.015C20.221,63.982,9.933,57.621,4.384,48.152c-2.777-4.739-4.37-10.26-4.371-16.146h-0.014V32v-0.015h0.014
		C0.017,23.146,3.594,15.15,9.372,9.372c5.779-5.779,13.779-9.357,22.621-9.359v-0.015H32h0.016v0.015
		c8.837,0.004,16.832,3.58,22.609,9.358C60.407,15.15,63.984,23.15,63.986,31.993L63.986,31.993z"/>
</g>
</svg>
