<?xml version="1.0" encoding="utf-8"?>
<!-- Generator: Adobe Illustrator 16.0.0, SVG Export Plug-In . SVG Version: 6.00 Build 0)  -->
<!DOCTYPE svg PUBLIC "-//W3C//DTD SVG 1.1//EN" "http://www.w3.org/Graphics/SVG/1.1/DTD/svg11.dtd">
<svg version="1.1" id="Capa_1" xmlns="http://www.w3.org/2000/svg" xmlns:xlink="http://www.w3.org/1999/xlink" x="0px" y="0px"
	 width="64px" height="64px" viewBox="0 0 64 64" enable-background="new 0 0 64 64" xml:space="preserve">
<path fill="#2D4B9B" d="M8.477,29.186h4.667v-0.56v-9.294c0-5.315,2.175-10.148,5.676-13.65V5.676
	c3.502-3.502,8.336-5.678,13.655-5.678c5.315,0,10.148,2.176,13.65,5.678l0.005,0.005c3.501,3.502,5.677,8.335,5.677,13.65v9.294
	v0.56h3.717c0.828,0,1.506,0.678,1.506,1.506v31.804c0,0.827-0.678,1.506-1.506,1.506H8.477c-0.828,0-1.506-0.679-1.506-1.506
	V30.691C6.971,29.863,7.649,29.186,8.477,29.186L8.477,29.186z M20.654,29.186h23.641v-0.56v-9.401c0-3.25-1.33-6.207-3.471-8.35
	l-0.002,0.002c-2.143-2.143-5.098-3.474-8.348-3.474c-3.25,0-6.207,1.33-8.35,3.471c-2.14,2.143-3.47,5.099-3.47,8.35v9.401V29.186
	L20.654,29.186z M32.57,46.588l2.387,11.01l-6.541,0.027l1.919-11.156c-1.787-0.574-3.083-2.248-3.083-4.227
	c0-2.447,1.984-4.432,4.434-4.432c2.448,0,4.432,1.983,4.432,4.432C36.119,44.389,34.596,46.18,32.57,46.588z"/>
<path fill="#FFFFFF" d="M32.57,46.588l2.387,11.01l-6.541,0.027l1.919-11.156c-1.787-0.574-3.083-2.248-3.083-4.227
	c0-2.447,1.984-4.432,4.434-4.432c2.448,0,4.432,1.983,4.432,4.432C36.119,44.389,34.596,46.18,32.57,46.588z"/>
</svg>
